<?xml version="1.0" encoding="UTF-8" standalone="no"?>
<!DOCTYPE svg PUBLIC "-//W3C//DTD SVG 1.1//EN" "http://www.w3.org/Graphics/SVG/1.1/DTD/svg11.dtd">
<svg width="158px" height="40px" version="1.1" xmlns="http://www.w3.org/2000/svg" xmlns:xlink="http://www.w3.org/1999/xlink" xml:space="preserve" xmlns:serif="http://www.serif.com/" style="fill-rule:evenodd;clip-rule:evenodd;stroke-linejoin:round;stroke-miterlimit:2;">
    <g transform="matrix(1,0,0,1,-194.096,-182.56)">
        <g transform="matrix(50.986,0,0,50.986,188.743,221.92)">
            <path d="M0.105,-0.528L0.105,-0.417L0.255,-0.417L0.255,-0.11L0.105,-0.11L0.105,-0L0.536,-0L0.536,-0.11L0.393,-0.11L0.393,-0.528L0.105,-0.528ZM0.246,-0.664C0.246,-0.653 0.247,-0.643 0.251,-0.635C0.255,-0.626 0.26,-0.618 0.267,-0.612C0.274,-0.605 0.282,-0.6 0.292,-0.597C0.301,-0.593 0.312,-0.591 0.324,-0.591C0.348,-0.591 0.367,-0.598 0.381,-0.612C0.395,-0.625 0.402,-0.642 0.402,-0.664C0.402,-0.685 0.395,-0.702 0.381,-0.716C0.367,-0.729 0.348,-0.736 0.324,-0.736C0.312,-0.736 0.301,-0.734 0.292,-0.73C0.282,-0.727 0.274,-0.722 0.267,-0.716C0.26,-0.709 0.255,-0.702 0.251,-0.693C0.247,-0.684 0.246,-0.674 0.246,-0.664Z" style="fill-rule:nonzero;"/>
        </g>
        <g transform="matrix(50.986,0,0,50.986,219.34,221.92)">
            <path d="M0.448,-0.538C0.413,-0.538 0.38,-0.53 0.35,-0.512C0.32,-0.495 0.294,-0.472 0.273,-0.442L0.272,-0.454L0.267,-0.528L0.14,-0.528L0.14,-0L0.276,-0L0.276,-0.317C0.282,-0.332 0.29,-0.345 0.299,-0.356C0.309,-0.368 0.32,-0.377 0.333,-0.384C0.345,-0.39 0.357,-0.395 0.371,-0.398C0.385,-0.401 0.401,-0.402 0.419,-0.402C0.436,-0.402 0.454,-0.401 0.472,-0.399C0.491,-0.397 0.509,-0.394 0.527,-0.39L0.547,-0.525C0.537,-0.528 0.523,-0.531 0.505,-0.534C0.488,-0.537 0.469,-0.538 0.448,-0.538Z" style="fill-rule:nonzero;"/>
        </g>
        <g transform="matrix(50.986,0,0,50.986,249.937,221.92)">
            <path d="M0.325,0.01C0.376,0.01 0.421,-0 0.458,-0.02C0.495,-0.04 0.523,-0.062 0.54,-0.086L0.472,-0.16C0.457,-0.139 0.436,-0.124 0.411,-0.114C0.386,-0.104 0.36,-0.099 0.333,-0.099C0.315,-0.099 0.297,-0.102 0.281,-0.108C0.265,-0.114 0.251,-0.122 0.239,-0.133C0.227,-0.143 0.217,-0.155 0.21,-0.168C0.203,-0.181 0.197,-0.198 0.192,-0.219L0.192,-0.22L0.551,-0.22L0.551,-0.278C0.551,-0.317 0.545,-0.352 0.535,-0.384C0.524,-0.416 0.508,-0.444 0.488,-0.466C0.467,-0.489 0.442,-0.507 0.412,-0.519C0.382,-0.532 0.348,-0.538 0.31,-0.538C0.273,-0.538 0.239,-0.531 0.208,-0.518C0.177,-0.505 0.15,-0.486 0.127,-0.462C0.104,-0.438 0.086,-0.409 0.074,-0.376C0.061,-0.342 0.055,-0.306 0.055,-0.265L0.055,-0.246C0.055,-0.21 0.061,-0.177 0.074,-0.146C0.087,-0.115 0.105,-0.088 0.129,-0.065C0.153,-0.042 0.181,-0.024 0.214,-0.01C0.248,0.003 0.285,0.01 0.325,0.01ZM0.309,-0.428C0.326,-0.428 0.342,-0.426 0.355,-0.42C0.368,-0.415 0.379,-0.408 0.388,-0.398C0.397,-0.389 0.404,-0.378 0.41,-0.365C0.415,-0.353 0.417,-0.339 0.417,-0.325L0.417,-0.314L0.195,-0.314C0.198,-0.331 0.203,-0.347 0.209,-0.361C0.216,-0.375 0.224,-0.387 0.234,-0.397C0.243,-0.407 0.254,-0.415 0.267,-0.42C0.28,-0.426 0.294,-0.428 0.309,-0.428Z" style="fill-rule:nonzero;"/>
        </g>
        <g transform="matrix(50.986,0,0,50.986,280.533,221.92)">
            <path d="M0.2,-0L0.336,-0L0.336,-0.428L0.527,-0.428L0.527,-0.528L0.336,-0.528L0.336,-0.557C0.336,-0.573 0.338,-0.587 0.343,-0.599C0.347,-0.611 0.353,-0.622 0.361,-0.63C0.371,-0.64 0.383,-0.648 0.399,-0.653C0.415,-0.659 0.435,-0.661 0.458,-0.661C0.479,-0.661 0.497,-0.66 0.513,-0.658C0.528,-0.656 0.542,-0.654 0.555,-0.651L0.563,-0.758C0.552,-0.76 0.542,-0.762 0.531,-0.763C0.521,-0.765 0.511,-0.766 0.501,-0.768C0.491,-0.769 0.481,-0.77 0.47,-0.771C0.459,-0.772 0.448,-0.772 0.437,-0.772C0.401,-0.772 0.368,-0.767 0.339,-0.758C0.31,-0.749 0.285,-0.735 0.264,-0.717C0.244,-0.699 0.228,-0.676 0.217,-0.649C0.206,-0.623 0.2,-0.592 0.2,-0.557L0.2,-0.528L0.062,-0.528L0.062,-0.428L0.2,-0.428L0.2,-0Z" style="fill-rule:nonzero;"/>
        </g>
        <g transform="matrix(50.986,0,0,50.986,311.13,221.92)">
            <path d="M0.325,0.01C0.376,0.01 0.421,-0 0.458,-0.02C0.495,-0.04 0.523,-0.062 0.54,-0.086L0.472,-0.16C0.457,-0.139 0.436,-0.124 0.411,-0.114C0.386,-0.104 0.36,-0.099 0.333,-0.099C0.315,-0.099 0.297,-0.102 0.281,-0.108C0.265,-0.114 0.251,-0.122 0.239,-0.133C0.227,-0.143 0.217,-0.155 0.21,-0.168C0.203,-0.181 0.197,-0.198 0.192,-0.219L0.192,-0.22L0.551,-0.22L0.551,-0.278C0.551,-0.317 0.545,-0.352 0.535,-0.384C0.524,-0.416 0.508,-0.444 0.488,-0.466C0.467,-0.489 0.442,-0.507 0.412,-0.519C0.382,-0.532 0.348,-0.538 0.31,-0.538C0.273,-0.538 0.239,-0.531 0.208,-0.518C0.177,-0.505 0.15,-0.486 0.127,-0.462C0.104,-0.438 0.086,-0.409 0.074,-0.376C0.061,-0.342 0.055,-0.306 0.055,-0.265L0.055,-0.246C0.055,-0.21 0.061,-0.177 0.074,-0.146C0.087,-0.115 0.105,-0.088 0.129,-0.065C0.153,-0.042 0.181,-0.024 0.214,-0.01C0.248,0.003 0.285,0.01 0.325,0.01ZM0.309,-0.428C0.326,-0.428 0.342,-0.426 0.355,-0.42C0.368,-0.415 0.379,-0.408 0.388,-0.398C0.397,-0.389 0.404,-0.378 0.41,-0.365C0.415,-0.353 0.417,-0.339 0.417,-0.325L0.417,-0.314L0.195,-0.314C0.198,-0.331 0.203,-0.347 0.209,-0.361C0.216,-0.375 0.224,-0.387 0.234,-0.397C0.243,-0.407 0.254,-0.415 0.267,-0.42C0.28,-0.426 0.294,-0.428 0.309,-0.428Z" style="fill-rule:nonzero;"/>
        </g>
        <g transform="matrix(1.09792,0,0,1.10486,-28.6518,13.0286)">
            <ellipse cx="342.937" cy="186.038" rx="3.725" ry="3.478"/>
        </g>
    </g>
</svg>
